<?xml version="1.0" encoding="iso-8859-1"?>
<!-- Generator: Adobe Illustrator 19.0.0, SVG Export Plug-In . SVG Version: 6.00 Build 0)  -->
<svg xmlns="http://www.w3.org/2000/svg" xmlns:xlink="http://www.w3.org/1999/xlink" version="1.1" id="Layer_1" x="0px" y="0px" viewBox="0 0 512 512" style="enable-background:new 0 0 512 512;" xml:space="preserve" width="512" height="512">
<g id="XMLID_554_">
	<g id="XMLID_555_">
		<path id="XMLID_1155_" style="fill:#77DFFF;" d="M417.566,494.635H146.543c-27.676,0-50.112-22.436-50.112-50.112v0h371.247v0    C467.678,472.199,445.242,494.635,417.566,494.635z"/>
		<path id="XMLID_556_" style="fill:#FFEDDC;" d="M451.255,188.92H107.563c1.614-8.027,4.361-15.649,8.049-22.682    c12.249-23.387,34.996-40.404,61.985-44.808c3.431-49.051,44.295-87.788,94.223-87.788c37.817,0,70.429,22.233,85.522,54.321    c44.68,3.485,81.279,35.744,91.23,78.275C450.282,173.528,451.212,181.117,451.255,188.92z"/>
		<path id="XMLID_557_" style="fill:#FBDBB7;" d="M451.255,188.92H107.563c1.614-8.027,4.361-15.649,8.049-22.682h332.96    C450.282,173.528,451.212,181.117,451.255,188.92z"/>
		<g id="XMLID_558_">
			<path id="XMLID_1152_" style="fill:#915040;" d="M219.627,183.599l-44.148,12.264L131.396,37.176     c-1.523-5.482,1.687-11.16,7.168-12.683l24.296-6.749c5.482-1.523,11.16,1.687,12.683,7.168L219.627,183.599z"/>
			<polygon id="XMLID_1151_" style="fill:#F4BC8E;" points="187.34,67.378 152.058,111.556 141.643,74.065 176.925,29.886    "/>
			<polygon id="XMLID_1150_" style="fill:#F4BC8E;" points="206.621,136.783 171.339,180.962 160.924,143.47 196.206,99.292    "/>
		</g>
		<path id="XMLID_1148_" style="fill:#B7F1FF;" d="M58.783,209.192h31.576v31.019H58.783c-15.309,0-27.764,12.455-27.764,27.765    v27.477c0,15.309,12.455,27.765,27.764,27.765h76.061v31.019H58.783C26.37,354.236,0,327.865,0,295.452l0-27.477    C0,235.562,26.37,209.192,58.783,209.192z"/>
		<path id="XMLID_559_" style="fill:#A86552;" d="M475.511,191.47v58.751c0,61.708-30.741,116.246-77.737,149.108    c-29.494,20.635-65.396,32.739-104.11,32.739h-23.22c-38.714,0-74.616-12.105-104.11-32.739    c-46.997-32.863-77.737-87.401-77.737-149.108V191.47c0-6.851,5.563-12.403,12.414-12.403h362.088    C469.958,179.066,475.511,184.619,475.511,191.47z"/>
		<path id="XMLID_560_" style="fill:#915040;" d="M397.774,399.329c-29.494,20.635-65.396,32.739-104.11,32.739h-23.22    c-38.714,0-74.616-12.105-104.11-32.739H397.774z"/>
		<path id="XMLID_1145_" style="fill:#B7F1FF;" d="M76.924,463.962h410.261c13.705,0,24.815-11.11,24.815-24.815v-20.015    c0-4.111-3.333-7.444-7.444-7.444H59.554c-4.111,0-7.444,3.333-7.444,7.444v20.015C52.109,452.852,63.219,463.962,76.924,463.962z    "/>
		<g id="XMLID_561_">
			<path id="XMLID_562_" style="fill:#FBDBB7;" d="M365.848,139.956h-0.111c-4.267,0-7.726-3.459-7.726-7.726     c0-4.268,3.459-7.726,7.726-7.726h0.111c4.267,0,7.726,3.459,7.726,7.726C373.574,136.497,370.115,139.956,365.848,139.956z"/>
		</g>
		<g id="XMLID_563_">
			<path id="XMLID_564_" style="fill:#FBDBB7;" d="M314.084,95.931h-0.111c-4.267,0-7.726-3.459-7.726-7.726     c0-4.268,3.459-7.726,7.726-7.726h0.111c4.267,0,7.726,3.459,7.726,7.726C321.81,92.472,318.351,95.931,314.084,95.931z"/>
		</g>
		<g id="XMLID_565_">
			<path id="XMLID_566_" style="fill:#FBDBB7;" d="M311.618,130.292c-0.024,0-0.048,0-0.072,0l-0.111-0.001     c-4.267-0.039-7.694-3.529-7.655-7.797c0.039-4.266,3.566-7.713,7.796-7.656l0.111,0.001c4.267,0.039,7.694,3.529,7.655,7.797     C319.304,126.878,315.853,130.292,311.618,130.292z"/>
		</g>
	</g>
	<g id="XMLID_567_">
		<path id="XMLID_568_" style="fill:#915040;" d="M267.785,320.877c-11.026,0-21.017-3.918-28.133-11.034    c-17.745-17.745-13.886-49.405,8.785-72.077c12.596-12.596,28.613-19.819,43.944-19.819c11.026,0,21.017,3.919,28.133,11.034    c17.745,17.745,13.886,49.405-8.785,72.077C299.133,313.653,283.116,320.877,267.785,320.877z"/>
		
			<ellipse id="XMLID_1136_" transform="matrix(-0.7071 -0.7071 0.7071 -0.7071 287.6297 657.9631)" style="fill:#BE7560;" cx="280.083" cy="269.412" rx="32.392" ry="44.816"/>
		<g id="XMLID_569_">
			<path id="XMLID_570_" style="fill:#915040;" d="M316.327,244.091l-61.564,61.564c-2.338-1.154-4.481-2.668-6.367-4.553     c-1.885-1.885-3.4-4.028-4.553-6.377l61.553-61.553c2.349,1.154,4.492,2.668,6.377,4.553     C313.659,239.61,315.174,241.753,316.327,244.091z"/>
		</g>
	</g>
</g>















</svg>
