<svg id="Capa_1" enable-background="new 0 0 512 512" height="512" viewBox="0 0 512 512" width="512" xmlns="http://www.w3.org/2000/svg"><path d="m512 219.026v-95.041h-512v95.041c20.42 0 36.974 16.554 36.974 36.974s-16.554 36.974-36.974 36.974v95.041h512v-95.041c-20.42 0-36.974-16.554-36.974-36.974s16.554-36.974 36.974-36.974z" fill="#dce6eb"/><path d="m512 219.026v-95.041h-256v264.029h256v-95.041c-20.42 0-36.974-16.554-36.974-36.974s16.554-36.973 36.974-36.973z" fill="#c8d2dc"/><g fill="#09607d"><path d="m84.968 176.152h31.939v31.939h-31.939z"/><path d="m84.968 240.031h31.939v31.939h-31.939z"/><path d="m84.968 303.909h31.939v31.939h-31.939z"/></g><path d="m443.06 218.003-33.053-33.053v17.084h-79.848v31.939h79.848v17.084z" fill="#07485e"/><path d="m320.627 260.943-33.053 33.054 33.053 33.053v-17.084h79.847v-31.939h-79.847z" fill="#07485e"/></svg>